<?xml version="1.0" encoding="UTF-8"?>
<svg version="1.1" xmlns="http://www.w3.org/2000/svg" width="512" height="512">
<path d="M0 0 C5.19377949 3.84114243 9.93738162 8.12574805 14.625 12.5625 C15.48867188 13.35011719 16.35234375 14.13773438 17.2421875 14.94921875 C30.40496812 27.4061691 39.80082389 42.87281353 48.625 58.5625 C49.38306172 59.89252772 50.14212661 61.22198434 50.90234375 62.55078125 C51.75505859 64.04158203 51.75505859 64.04158203 52.625 65.5625 C53.80751343 65.53893433 53.80751343 65.53893433 55.01391602 65.51489258 C87.20440674 64.96137402 119.77076982 66.7890785 147.1875 85.625 C151.47523779 88.04172493 152.87879181 87.57398699 157.625 86.5625 C169.58636316 85.64117322 179.28240208 87.71209565 188.6171875 95.5078125 C195.57935333 102.63251916 198.62971615 110.98840651 199 120.8125 C198.81693701 130.77799153 195.49318761 139.28222114 188.625 146.5625 C185.025 149.5625 185.025 149.5625 182.625 149.5625 C182.80289062 150.37332031 182.98078125 151.18414062 183.1640625 152.01953125 C186.48007981 177.50790162 173.33638889 207.64179889 160.04296875 228.73046875 C159.40742065 229.74270508 159.40742065 229.74270508 158.7590332 230.77539062 C157.93808507 232.06292766 157.10001923 233.33975607 156.24291992 234.60351562 C154.94491551 236.53675633 154.94491551 236.53675633 153.625 239.5625 C154.67907407 242.9789522 156.32560609 245.92455034 158.1640625 248.9765625 C171.47192918 271.42314839 181.49279187 294.76184756 183.3125 321.0625 C183.36116211 321.75802979 183.40982422 322.45355957 183.45996094 323.17016602 C183.64082146 326.31397027 183.63136697 328.54339909 182.625 331.5625 C183.2025 331.81257813 183.78 332.06265625 184.375 332.3203125 C190.63988079 335.77904877 194.71956866 341.83974546 197.125 348.4375 C199.77825694 357.72979542 199.55529546 366.66371782 195.625 375.5625 C190.56264381 384.26786017 183.2265147 390.79050147 173.62890625 393.9140625 C167.12608373 395.31779272 160.43568363 395.28940094 154 393.625 C149.14255458 393.53504731 146.56037435 395.89932885 142.62890625 398.58984375 C120.5800783 413.06924312 93.10278996 415.45080787 67.5 416.125 C65.95571997 416.16829302 64.411449 416.21191033 62.8671875 416.25585938 C59.11988861 416.36180941 55.37248647 416.4633787 51.625 416.5625 C51.10292969 417.6040625 50.58085937 418.645625 50.04296875 419.71875 C34.43135726 450.32989411 11.49615106 479.80250098 -21.375 492.5625 C-22.48617188 492.99691406 -23.59734375 493.43132812 -24.7421875 493.87890625 C-44.72120776 500.38001602 -67.08056317 497.84350182 -85.6875 488.75 C-96.13642545 483.36733347 -104.85368448 476.63933558 -113.375 468.5625 C-114.31214844 467.70140625 -115.24929687 466.8403125 -116.21484375 465.953125 C-131.0426419 452.02197137 -141.3808624 434.65062686 -150.375 416.5625 C-151.70954224 416.54062622 -151.70954224 416.54062622 -153.07104492 416.51831055 C-187.49683865 415.88980273 -187.49683865 415.88980273 -204.375 412.5625 C-205.08849609 412.42473145 -205.80199219 412.28696289 -206.53710938 412.14501953 C-220.79138035 409.28291545 -233.61904471 403.60880735 -245.921875 395.9453125 C-249.90313738 393.70109772 -252.03010271 393.374629 -256.375 394.5625 C-266.30152396 395.39311449 -274.90013912 394.54920127 -283.10546875 388.57421875 C-291.51661818 381.380636 -296.65737587 374.0842865 -297.59375 362.96484375 C-297.94721995 352.4932965 -295.3992249 344.37978255 -288.375 336.5625 C-287.08529297 335.58216797 -287.08529297 335.58216797 -285.76953125 334.58203125 C-282.11653825 329.97556536 -282.34034843 325.29461133 -281.9375 319.5625 C-279.48855652 293.60333842 -270.1017863 270.65756533 -256.66015625 248.46875 C-255.89681637 247.16761638 -255.13487301 245.86566134 -254.375 244.5625 C-253.86066406 243.70269531 -253.34632813 242.84289062 -252.81640625 241.95703125 C-252.11643671 238.15985136 -254.20126699 235.77077705 -256.25 232.75 C-257.10238465 231.41315939 -257.94990857 230.0732092 -258.79296875 228.73046875 C-259.22657715 228.04259277 -259.66018555 227.3547168 -260.10693359 226.64599609 C-272.8446167 205.71735004 -280.36312681 182.60891693 -282.1237793 158.24487305 C-282.46486861 152.07449634 -282.46486861 152.07449634 -285.73828125 147.13671875 C-286.60839844 146.61722656 -287.47851562 146.09773437 -288.375 145.5625 C-295.87071309 135.75348067 -298.5096748 126.85720411 -297.375 114.5625 C-295.45277944 105.81466992 -291.17088917 98.15556166 -283.9453125 92.7421875 C-274.90555797 87.05456079 -266.93497195 85.99822669 -256.375 86.5625 C-254.580625 87.0265625 -254.580625 87.0265625 -252.75 87.5 C-247.93307482 87.58920232 -245.47133056 85.26956123 -241.5703125 82.6015625 C-214.85090403 65.55079083 -181.96943204 64.95280003 -151.375 65.5625 C-150.43140625 63.82226562 -150.43140625 63.82226562 -149.46875 62.046875 C-139.7630354 44.27404817 -129.14004459 27.58792269 -114.375 13.5625 C-113.56546875 12.74394531 -112.7559375 11.92539062 -111.921875 11.08203125 C-80.81855808 -19.68735435 -36.34768912 -24.45932132 0 0 Z M-96.375 21.5625 C-97.13425781 22.18898438 -97.89351562 22.81546875 -98.67578125 23.4609375 C-110.15641172 33.17684238 -118.53071785 45.76007608 -126.3125 58.5 C-126.7146875 59.15129883 -127.116875 59.80259766 -127.53125 60.47363281 C-129.82467889 64.24552105 -129.82467889 64.24552105 -130.375 68.5625 C-129.68390137 68.67207031 -128.99280273 68.78164062 -128.28076172 68.89453125 C-104.67703281 72.70520709 -80.97459237 77.50628159 -58.75 86.56787109 C-49.36354407 90.20154176 -41.66738965 87.21394725 -32.5625 83.9375 C-11.64722257 76.71462898 9.77321543 71.91963562 31.625 68.5625 C31.08261953 63.61446763 28.81383447 60.1592864 26.1875 56.0625 C25.74156494 55.3597998 25.29562988 54.65709961 24.83618164 53.93310547 C20.4754907 47.16205543 15.7247066 40.79089772 10.625 34.5625 C9.91988281 33.69109375 9.21476563 32.8196875 8.48828125 31.921875 C-3.20306607 18.17751845 -21.00355023 4.90151029 -39.375 2.5625 C-61.64962217 0.81771259 -79.40912015 6.84168633 -96.375 21.5625 Z M-234.375 99.5625 C-233.31917071 102.83557081 -232.22275191 105.88456327 -230.75 109 C-227.85570787 116.73295488 -228.15775495 126.30572155 -231 134 C-235.83426926 144.12175126 -242.14735615 149.46493835 -252.4375 153.875 C-256.38810365 154.79960937 -260.33635632 155.22145898 -264.375 155.5625 C-262.12193602 178.059512 -255.10688455 198.22632992 -244.42578125 218.078125 C-244.10262939 218.67915039 -243.77947754 219.28017578 -243.4465332 219.89941406 C-242.27794697 221.71313232 -240.94749038 223.09271544 -239.375 224.5625 C-238.63636719 223.69109375 -237.89773437 222.8196875 -237.13671875 221.921875 C-227.12590839 210.14788212 -216.75710703 198.85079468 -205.875 187.875 C-205.00883057 186.99577881 -204.14266113 186.11655762 -203.25024414 185.21069336 C-196.7656716 178.71757644 -189.98295042 172.04049885 -182.14770508 167.18115234 C-179.63670322 164.88836315 -179.49213396 162.94388511 -178.91796875 159.62109375 C-178.6964917 158.41098633 -178.47501465 157.20087891 -178.24682617 155.95410156 C-178.13583588 155.31025513 -178.02484558 154.66640869 -177.91049194 154.00305176 C-177.31602019 150.58125505 -176.65747871 147.17187926 -176 143.76171875 C-175.86695969 143.06809235 -175.73391937 142.37446594 -175.59684753 141.65982056 C-171.72398746 121.75170771 -165.26990153 102.59704208 -158.375 83.5625 C-185.84874599 82.78685493 -210.09458339 86.3929066 -234.375 99.5625 Z M59.625 83.5625 C59.92156494 84.41553711 60.21812988 85.26857422 60.52368164 86.14746094 C65.68291499 101.0729922 70.74922039 115.97646078 74.5625 131.3125 C74.84585205 132.45017822 75.1292041 133.58785645 75.42114258 134.76000977 C76.68926623 140.03869401 77.7833671 145.27693651 78.55078125 150.65234375 C79.82930465 161.94328272 79.82930465 161.94328272 86.5625 170.625 C88.57556459 171.9493846 90.59672219 173.26153393 92.625 174.5625 C94.65767891 176.30011262 96.61952655 178.0439966 98.5625 179.875 C99.08481201 180.36097656 99.60712402 180.84695312 100.14526367 181.34765625 C112.30915631 192.75274273 124.44835636 204.32116598 134.625 217.5625 C136.60129645 219.91741324 138.61149105 222.23922045 140.625 224.5625 C155.45238832 207.38318112 165.81668976 178.20460547 164.625 155.5625 C163.88636719 155.48773438 163.14773438 155.41296875 162.38671875 155.3359375 C153.04489326 154.12517994 144.69367209 151.31330753 138.1875 144.1875 C130.90979966 134.70124898 129.72135642 125.2741964 130.625 113.5625 C131.4170909 110.73617565 132.38078448 108.25210855 133.65234375 105.61328125 C134.60543998 103.60374101 135.15991097 101.73128358 135.625 99.5625 C111.34458339 86.3929066 87.09874599 82.78685493 59.625 83.5625 Z M-139.375 85.5625 C-143.21728674 92.52211371 -145.67890477 99.86477953 -148.15673828 107.38623047 C-148.86516288 109.53269439 -149.58612221 111.67463566 -150.30859375 113.81640625 C-156.37156884 130.36445949 -156.37156884 130.36445949 -158.375 147.5625 C-153.92554833 145.09702808 -149.68022781 142.47443161 -145.48071289 139.60595703 C-123.50380342 124.5950424 -99.89088742 111.00641741 -75.375 100.5625 C-76.18922704 98.376566 -76.18922704 98.376566 -78.38671875 97.7722168 C-79.71123047 97.39577026 -79.71123047 97.39577026 -81.0625 97.01171875 C-82.05926758 96.7276416 -83.05603516 96.44356445 -84.08300781 96.15087891 C-85.16936523 95.85358887 -86.25572266 95.55629883 -87.375 95.25 C-89.0470752 94.78859619 -89.0470752 94.78859619 -90.75292969 94.31787109 C-106.55893478 90.05490506 -122.92689871 85.92220003 -139.375 85.5625 Z M21.3125 87.625 C20.14001709 87.84325439 18.96753418 88.06150879 17.75952148 88.28637695 C-3.43721289 91.96188077 -3.43721289 91.96188077 -23.375 99.5625 C-21.24417774 101.69332226 -19.57395045 102.5234517 -16.8515625 103.77734375 C-15.92327637 104.21030762 -14.99499023 104.64327148 -14.03857422 105.08935547 C-13.03584473 105.55486816 -12.03311523 106.02038086 -11 106.5 C13.48778744 118.06335969 36.50892429 131.95299253 58.625 147.5625 C60.4790359 142.11442549 58.23474617 136.92946667 56.8125 131.5625 C56.34904175 129.79229492 56.34904175 129.79229492 55.8762207 127.98632812 C50.33019497 105.82481989 50.33019497 105.82481989 40.625 85.5625 C34.13769364 84.84366031 27.67371022 86.43281323 21.3125 87.625 Z M-277.17578125 112.84375 C-279.79213985 116.59357991 -279.73779078 120.13645251 -279.375 124.5625 C-277.47596173 130.37898294 -274.86867807 133.64033081 -269.375 136.5625 C-264.81725006 138.08174998 -260.694791 138.49796726 -256.21484375 136.69140625 C-251.42574894 133.96117463 -248.09201891 130.88419214 -246.375 125.5625 C-245.43792929 120.60941194 -245.94490149 116.68184066 -248.375 112.25 C-251.26935358 108.15375383 -254.5997811 106.01146909 -259.375 104.5625 C-267.59772569 103.57010207 -272.12457745 106.79821475 -277.17578125 112.84375 Z M150.234375 111.13671875 C147.23087014 115.6737032 146.7206023 120.24916348 147.625 125.5625 C149.32681459 130.8806706 152.6804348 133.98242889 157.4765625 136.68359375 C162.12134423 138.58373173 166.00108376 138.11463152 170.75 136.5 C175.26846921 133.45494466 178.88526194 129.78171417 180.625 124.5625 C181.02264225 119.2937402 180.54927667 115.99608076 177.625 111.5625 C173.33767293 107.22449531 170.16643015 104.82095052 163.9375 104.1875 C158.24643201 104.28182709 153.95811659 106.9213596 150.234375 111.13671875 Z M-55.7734375 110.8359375 C-56.88227295 111.32562012 -57.9911084 111.81530273 -59.13354492 112.31982422 C-60.3269751 112.85365723 -61.52040527 113.38749023 -62.75 113.9375 C-63.36001862 114.21015686 -63.97003723 114.48281372 -64.59854126 114.76373291 C-96.74735686 129.15797065 -127.15808645 146.53340892 -155.25 167.875 C-155.95181396 168.40810791 -156.65362793 168.94121582 -157.37670898 169.49047852 C-162.50247184 173.35277515 -162.50247184 173.35277515 -164.86157227 179.21948242 C-164.97041748 180.27498291 -165.0792627 181.3304834 -165.19140625 182.41796875 C-165.37799805 184.19010742 -165.37799805 184.19010742 -165.56835938 185.99804688 C-165.69017578 187.23619141 -165.81199219 188.47433594 -165.9375 189.75 C-166.06318359 190.93787109 -166.18886719 192.12574219 -166.31835938 193.34960938 C-167.89329655 208.67844815 -168.60884297 223.91259253 -168.625 239.3125 C-168.62667175 240.16491272 -168.62834351 241.01732544 -168.63006592 241.89556885 C-168.63156132 254.7939723 -168.0990557 267.58643239 -167 280.4375 C-166.93687622 281.18640503 -166.87375244 281.93531006 -166.80871582 282.70690918 C-166.42702588 296.61168727 -166.42702588 296.61168727 -161.4765625 309.015625 C-160.65929687 309.60859375 -159.84203125 310.2015625 -159 310.8125 C-157.52080078 311.90691406 -157.52080078 311.90691406 -156.01171875 313.0234375 C-154.79963036 313.87000817 -153.58737543 314.71634044 -152.375 315.5625 C-150.85973611 316.65755328 -149.34548222 317.75400497 -147.83203125 318.8515625 C-137.73000208 326.10917561 -127.39738588 332.89848292 -116.67773438 339.20605469 C-115.13107133 340.11712974 -113.58813256 341.0345544 -112.04882812 341.95800781 C-100.75025496 348.73065294 -89.16451337 354.76844055 -77.3125 360.5 C-76.65786774 360.81714966 -76.00323547 361.13429932 -75.32876587 361.46105957 C-72.19625231 362.97405068 -69.05655125 364.46749286 -65.89794922 365.92529297 C-63.61186921 366.98769439 -61.34111768 368.08397506 -59.09033203 369.21923828 C-52.67269539 372.35676001 -52.67269539 372.35676001 -45.8125 371.6796875 C-44.31654958 371.01026983 -42.83757665 370.30199795 -41.375 369.5625 C-39.62569837 368.81347108 -37.87565516 368.06617244 -36.125 367.3203125 C-34.20505994 366.44989285 -32.28853883 365.57190337 -30.375 364.6875 C-29.33609619 364.20772705 -28.29719238 363.7279541 -27.22680664 363.23364258 C24.28539706 340.71941937 24.28539706 340.71941937 65.625 304.5625 C66.1619275 301.8261958 66.1619275 301.8261958 66.44140625 298.70703125 C66.62799805 296.93489258 66.62799805 296.93489258 66.81835938 295.12695312 C66.94017578 293.88880859 67.06199219 292.65066406 67.1875 291.375 C67.31318359 290.18712891 67.43886719 288.99925781 67.56835938 287.77539062 C69.14329655 272.44655185 69.85884297 257.21240747 69.875 241.8125 C69.87667175 240.96008728 69.87834351 240.10767456 69.88006592 239.22943115 C69.88156132 226.3310277 69.3490557 213.53856761 68.25 200.6875 C68.18687622 199.93859497 68.12375244 199.18968994 68.05871582 198.41809082 C67.67702588 184.51331273 67.67702588 184.51331273 62.7265625 172.109375 C61.90929687 171.51640625 61.09203125 170.9234375 60.25 170.3125 C58.75146484 169.20648438 58.75146484 169.20648438 57.22265625 168.078125 C56.36824951 167.48161133 56.36824951 167.48161133 55.49658203 166.87304688 C53.45173674 165.44117504 51.44387382 163.9643469 49.43359375 162.484375 C-1.08032726 124.71685004 -1.08032726 124.71685004 -55.7734375 110.8359375 Z M-191.0625 198.08203125 C-191.6390332 198.65523605 -192.21556641 199.22844086 -192.80957031 199.8190155 C-194.03827742 201.04264095 -195.26561032 202.26764757 -196.49169922 203.49389648 C-198.33410402 205.33415173 -200.18429381 207.16630388 -202.03515625 208.99804688 C-208.21037748 215.14418133 -214.08509156 221.33459931 -219.48950195 228.17895508 C-222.01376643 231.36999406 -224.68087727 234.42718724 -227.35546875 237.4921875 C-228.62758443 239.54265101 -228.62758443 239.54265101 -227.8984375 241.90234375 C-225.90233677 245.38784272 -223.47102679 248.25208681 -220.8125 251.25 C-220.32458984 251.81138672 -219.83667969 252.37277344 -219.33398438 252.95117188 C-217.69259249 254.83215233 -216.03497829 256.69790397 -214.375 258.5625 C-213.36493896 259.7071875 -213.36493896 259.7071875 -212.33447266 260.875 C-206.71850792 267.19093997 -200.86360316 273.22539509 -194.875 279.1875 C-193.97007812 280.09628906 -193.06515625 281.00507813 -192.1328125 281.94140625 C-190.84503906 283.22724609 -190.84503906 283.22724609 -189.53125 284.5390625 C-188.75587891 285.31330566 -187.98050781 286.08754883 -187.18164062 286.88525391 C-185.66371907 288.67589585 -185.66371907 288.67589585 -184.375 288.5625 C-184.48328125 286.7990625 -184.48328125 286.7990625 -184.59375 285 C-186.25625051 254.3295279 -186.25758203 223.22169313 -184.375 192.5625 C-186.73045586 192.5625 -189.3899946 196.41286614 -191.0625 198.08203125 Z M85.625 192.5625 C85.65529297 193.11969727 85.68558594 193.67689453 85.71679688 194.25097656 C87.34053404 225.61408434 87.32990308 257.20316568 85.625 288.5625 C91.56138258 283.63160227 97.04726055 278.33285076 102.5 272.875 C103.39041992 271.98377441 104.28083984 271.09254883 105.19824219 270.17431641 C111.08764851 264.22963593 116.55877225 258.22745207 121.625 251.5625 C123.14235136 249.66387869 124.66311343 247.76797745 126.1875 245.875 C127.33396699 244.43800532 128.4800516 243.00070494 129.625 241.5625 C128.14373908 236.87330122 125.3922307 233.61801727 122.1875 230 C121.37853271 229.07429199 121.37853271 229.07429199 120.55322266 228.12988281 C118.91856264 226.26676313 117.27327426 224.41357638 115.625 222.5625 C114.76519531 221.58925781 113.90539062 220.61601562 113.01953125 219.61328125 C107.20720274 213.15213467 101.13171474 206.96947784 95 200.8125 C94.19288574 200.00071289 93.38577148 199.18892578 92.55419922 198.35253906 C91.80154785 197.60198242 91.04889648 196.85142578 90.2734375 196.078125 C89.59458496 195.40040039 88.91573242 194.72267578 88.21630859 194.02441406 C86.86241327 192.44974457 86.86241327 192.44974457 85.625 192.5625 Z M-240.375 256.5625 C-252.42157635 277.10450774 -264.375 301.06485167 -264.375 325.5625 C-263.56417969 325.63726562 -262.75335938 325.71203125 -261.91796875 325.7890625 C-252.20923676 326.94190378 -243.71400532 329.53416794 -236.9375 336.9375 C-229.65979966 346.42375102 -228.47135642 355.8508036 -229.375 367.5625 C-230.1670909 370.38882435 -231.13078448 372.87289145 -232.40234375 375.51171875 C-233.35543998 377.52125899 -233.90991097 379.39371642 -234.375 381.5625 C-210.09458339 394.7320934 -185.84874599 398.33814507 -158.375 397.5625 C-158.86528687 396.16233643 -158.86528687 396.16233643 -159.36547852 394.73388672 C-165.05013307 378.42741994 -170.58320338 362.16109663 -174.4375 345.3125 C-174.71956299 344.07975342 -175.00162598 342.84700684 -175.29223633 341.5769043 C-176.40232016 336.55493307 -177.43188283 331.56939731 -178.07421875 326.46484375 C-178.94316737 319.60988915 -179.76434541 315.30882603 -185.3125 310.75 C-187.32616191 309.34384077 -189.34712584 307.94808452 -191.375 306.5625 C-199.32385837 299.83113982 -206.67097096 292.39078739 -214.0625 285.0625 C-214.94147949 284.19657227 -215.82045898 283.33064453 -216.72607422 282.43847656 C-222.71121589 276.4612086 -228.1082684 270.17578286 -233.375 263.5625 C-235.3370251 261.18790801 -237.32803899 258.86533113 -239.375 256.5625 C-239.705 256.5625 -240.035 256.5625 -240.375 256.5625 Z M140.625 256.5625 C139.81417969 257.50609375 139.00335938 258.4496875 138.16796875 259.421875 C102.7007255 300.60058604 102.7007255 300.60058604 84.08081055 313.29736328 C81.1052758 316.04187182 80.76004081 317.54717518 80.10546875 321.49609375 C79.89229004 322.68775146 79.67911133 323.87940918 79.45947266 325.10717773 C79.24597168 326.39180908 79.0324707 327.67644043 78.8125 329 C78.31937486 331.73224616 77.80499513 334.46022156 77.28515625 337.1875 C77.15316833 337.88415268 77.02118042 338.58080536 76.88519287 339.29856873 C73.03823221 359.20142691 66.61264753 378.56834396 59.625 397.5625 C86.07144441 398.29261656 112.65435167 395.73052762 135.625 381.5625 C134.56917071 378.28942919 133.47275191 375.24043673 132 372.125 C128.99631462 364.1560388 129.32372128 353.49845601 132.53125 345.61328125 C137.4705292 336.35213275 144.17523789 331.27140009 153.75 327.25 C157.37173337 326.38393332 160.920624 325.94571131 164.625 325.5625 C165.14805587 304.43104298 156.82446636 273.54025532 141.98535156 257.82617188 C141.53643555 257.40916016 141.08751953 256.99214844 140.625 256.5625 Z M-158.375 333.5625 C-157.78987853 341.22596594 -156.01198564 348.25487136 -153.875 355.625 C-153.52622803 356.83841064 -153.17745605 358.05182129 -152.81811523 359.30200195 C-148.38903541 378.64496552 -148.38903541 378.64496552 -139.375 395.5625 C-130.21654516 395.46299127 -121.30004789 393.78078154 -112.375 391.875 C-111.12493164 391.61170898 -109.87486328 391.34841797 -108.58691406 391.07714844 C-100.7023978 389.37854194 -92.88879613 387.49845631 -85.125 385.3125 C-84.24457031 385.06669189 -83.36414063 384.82088379 -82.45703125 384.56762695 C-80.40895315 383.9657758 -78.38782222 383.27341168 -76.375 382.5625 C-75.88 381.5725 -75.88 381.5725 -75.375 380.5625 C-76.1278125 380.21171387 -76.880625 379.86092773 -77.65625 379.49951172 C-95.09693816 371.33212635 -111.925677 362.61762181 -128.375 352.5625 C-129.15713867 352.08796387 -129.93927734 351.61342773 -130.74511719 351.12451172 C-139.03164353 346.08649361 -147.08562731 340.78980971 -154.99609375 335.1796875 C-157.03341015 333.46880024 -157.03341015 333.46880024 -158.375 333.5625 Z M58.625 333.5625 C58.01317871 333.97910889 57.40135742 334.39571777 56.77099609 334.82495117 C31.51348315 351.97287911 5.06188745 369.08723172 -23.375 380.5625 C-22.56077296 382.748434 -22.56077296 382.748434 -20.36328125 383.3527832 C-19.48027344 383.60374756 -18.59726562 383.85471191 -17.6875 384.11328125 C-16.69073242 384.3973584 -15.69396484 384.68143555 -14.66699219 384.97412109 C-13.58063477 385.27141113 -12.49427734 385.56870117 -11.375 385.875 C-10.2602832 386.18260254 -9.14556641 386.49020508 -7.99707031 386.80712891 C7.80893478 391.07009494 24.17689871 395.20279997 40.625 395.5625 C44.49846729 388.44176106 47.03617456 380.99639672 49.5625 373.3125 C49.78088531 372.65308411 49.99927063 371.99366821 50.22427368 371.31427002 C52.99660655 362.9218969 55.62986305 354.50558878 57.8125 345.9375 C58.12465454 344.7323877 58.12465454 344.7323877 58.44311523 343.50292969 C59.33567552 339.79967639 59.73659387 337.20016958 58.625 333.5625 Z M-276.8125 350.625 C-279.22873929 355.16752987 -279.72251581 358.43664176 -279.375 363.5625 C-277.48909369 368.99834759 -274.0070232 372.33061108 -269.375 375.5625 C-264.3750025 377.22916583 -260.08845913 377.13873861 -255.25 375.0625 C-250.76050931 372.57319096 -248.20671565 369.34015465 -246.375 364.5625 C-245.34831607 359.2746235 -245.99440479 354.65325825 -248.984375 350.13671875 C-252.10000232 346.60975861 -255.76517604 344.13908902 -260.390625 343.1171875 C-267.15864226 342.71750144 -272.64572119 345.38981636 -276.8125 350.625 Z M150.234375 350.13671875 C147.23087014 354.6737032 146.7206023 359.24916348 147.625 364.5625 C149.32681459 369.8806706 152.6804348 372.98242889 157.4765625 375.68359375 C162.12134423 377.58373173 166.00108376 377.11463152 170.75 375.5 C175.26846921 372.45494466 178.88526194 368.78171417 180.625 363.5625 C181.02283285 358.29121477 180.45150536 355.0459223 177.625 350.5625 C173.3516759 345.61444051 170.26313005 343.86523623 163.8125 343.125 C158.20602147 343.29457213 153.90016291 345.98696446 150.234375 350.13671875 Z M-57.8828125 394.28515625 C-58.93758789 394.65552002 -59.99236328 395.02588379 -61.07910156 395.4074707 C-62.20799805 395.80925537 -63.33689453 396.21104004 -64.5 396.625 C-86.02153998 404.02357779 -107.89407334 409.10870796 -130.375 412.5625 C-129.83262883 417.51044754 -127.56392945 420.96584103 -124.9375 425.0625 C-124.49083984 425.76592529 -124.04417969 426.46935059 -123.58398438 427.1940918 C-109.16993867 449.56568132 -89.65087209 471.90268336 -62.53515625 478.16015625 C-43.06158765 480.63948575 -25.7663337 477.21185818 -9.62109375 465.578125 C-7.1494062 463.63096351 -4.75594763 461.61914614 -2.375 459.5625 C-1.68921875 459.00949219 -1.0034375 458.45648438 -0.296875 457.88671875 C5.49659024 453.10825038 10.04916051 447.4917568 14.625 441.5625 C15.2953125 440.69625 15.965625 439.83 16.65625 438.9375 C20.61481958 433.65940723 24.19440065 428.19268711 27.625 422.5625 C28.22248047 421.59135254 28.22248047 421.59135254 28.83203125 420.60058594 C31.0908371 416.84975094 31.0908371 416.84975094 31.625 412.5625 C30.58835205 412.39814453 30.58835205 412.39814453 29.53076172 412.23046875 C5.76733003 408.39400988 -17.72938975 403.30035807 -40.26367188 394.64501953 C-40.99134766 394.37028809 -41.71902344 394.09555664 -42.46875 393.8125 C-43.08427734 393.57015625 -43.69980469 393.3278125 -44.33398438 393.078125 C-49.19001275 391.85133888 -53.25429757 392.61511943 -57.8828125 394.28515625 Z " fill="#000000" transform="translate(305.375,15.4375)"/>
<path d="M0 0 C3.36079973 0.93560725 4.84841401 2.99923364 7.1328125 5.59375 C8.45860356 8.14096284 9.59665809 10.56901885 10.671875 13.21484375 C11.15001648 14.34889648 11.15001648 14.34889648 11.63781738 15.50585938 C12.68975663 18.00951273 13.72382579 20.52013519 14.7578125 23.03125 C15.49624198 24.79932376 16.23568317 26.56697528 16.97607422 28.33422852 C18.96153542 33.08358433 20.9305793 37.83957274 22.89501953 42.59765625 C24.14995598 45.63524601 25.40841371 48.67135393 26.66796875 51.70703125 C31.12269988 62.44443125 35.57748722 73.1819689 39.98062134 83.94065857 C41.70185633 88.14319179 43.44317961 92.33407447 45.24121094 96.50439453 C45.57023407 97.2763063 45.8992572 98.04821808 46.23825073 98.84352112 C46.84864507 100.27289962 47.46723907 101.69881914 48.09597778 103.120224 C49.78603237 107.1033113 50.56417803 110.27190417 50.1328125 114.59375 C47.86810662 119.22610294 47.86810662 119.22610294 45.1328125 120.59375 C39.44852877 121.15285987 39.44852877 121.15285987 37.1328125 120.59375 C33.20287577 117.17157016 31.15576878 114.08795172 29.23828125 109.26953125 C28.51801758 107.47999023 28.51801758 107.47999023 27.78320312 105.65429688 C27.5431958 105.0393335 27.30318848 104.42437012 27.0559082 103.79077148 C26.31637574 101.89616443 25.55935245 100.00931355 24.79882812 98.12304688 C21.1328125 88.92059949 21.1328125 88.92059949 21.1328125 86.59375 C6.2828125 86.92375 -8.5671875 87.25375 -23.8671875 87.59375 C-27.60721629 96.95116933 -27.60721629 96.95116933 -31.31518555 106.32128906 C-32.02735229 108.0726416 -32.02735229 108.0726416 -32.75390625 109.859375 C-33.23045654 111.05336914 -33.70700684 112.24736328 -34.19799805 113.47753906 C-36.02256725 116.88382856 -37.62909203 118.52292233 -40.8671875 120.59375 C-45.2640219 121.3003841 -47.10446217 121.11305235 -50.8046875 118.59375 C-53.39128011 114.83143348 -53.44126218 111.9816753 -52.8671875 107.59375 C-51.90742521 104.27577157 -50.57649893 101.16239551 -49.1953125 98 C-48.80535095 97.07533936 -48.4153894 96.15067871 -48.01361084 95.19799805 C-46.72793386 92.15748522 -45.42264406 89.12581641 -44.1171875 86.09375 C-43.21598468 83.9726263 -42.31626723 81.85087095 -41.41796875 79.72851562 C-39.53739349 75.28800542 -37.65033121 70.8503275 -35.75976562 66.4140625 C-32.87734545 59.63544226 -30.04522437 52.83658978 -27.2265625 46.03125 C-26.54753876 44.39295227 -26.54753876 44.39295227 -25.85479736 42.72155762 C-24.09430177 38.47280908 -22.33456437 34.22374887 -20.57678223 29.97387695 C-19.36386404 27.04392183 -18.14719911 24.11554878 -16.9296875 21.1875 C-16.5763031 20.33115967 -16.2229187 19.47481934 -15.85882568 18.5925293 C-8.27572157 0.38944572 -8.27572157 0.38944572 0 0 Z M-1.8671875 33.59375 C-3.45304125 37.21765238 -5.03539683 40.8430725 -6.6171875 44.46875 C-7.060625 45.48195313 -7.5040625 46.49515625 -7.9609375 47.5390625 C-13.26136082 57.73741086 -13.26136082 57.73741086 -15.8671875 68.59375 C-6.2971875 68.59375 3.2728125 68.59375 13.1328125 68.59375 C8.79510478 56.77349648 4.08927576 45.16721751 -0.8671875 33.59375 C-1.1971875 33.59375 -1.5271875 33.59375 -1.8671875 33.59375 Z " fill="#000000" transform="translate(214.8671875,195.40625)"/>
<path d="M0 0 C1.29063354 -0.0071553 2.58126709 -0.01431061 3.91101074 -0.02168274 C6.63806538 -0.0335417 9.36430274 -0.02689222 12.09130859 -0.00756836 C15.57900399 0.0153268 19.06426438 -0.01147172 22.55171967 -0.05263042 C25.88879852 -0.0844142 29.22527994 -0.07121048 32.5625 -0.0625 C33.81156128 -0.07778244 35.06062256 -0.09306488 36.34753418 -0.10881042 C44.76487932 0.00454702 44.76487932 0.00454702 47.69555664 2.00761414 C49.56867499 4.1659038 50.68058659 6.10048118 51.15625 8.9296875 C50.60434001 11.80996777 50.11929443 14.22288342 48.40625 16.63671875 C41.36756733 21.23893434 33.2560828 18.69921875 24.78125 18.69921875 C24.78125 46.41921875 24.78125 74.13921875 24.78125 102.69921875 C31.05125 102.69921875 37.32125 102.69921875 43.78125 102.69921875 C49.84791667 106.33921875 49.84791667 106.33921875 50.78125 109.69921875 C50.64600196 113.48616395 50.43374253 115.85683128 48.08848572 118.8846283 C45.19030564 121.16398357 43.6493147 121.21052156 39.99047852 121.23266602 C38.24330284 121.25642052 38.24330284 121.25642052 36.46083069 121.28065491 C35.20660812 121.27569504 33.95238556 121.27073517 32.66015625 121.265625 C31.36810776 121.27182358 30.07605927 121.27802216 28.74485779 121.28440857 C26.01193407 121.29480714 23.27953119 121.2902607 20.54663086 121.27563477 C17.05134175 121.25845615 13.55769798 121.28192957 10.06259251 121.31712437 C6.72001746 121.34442134 3.37783758 121.3343604 0.03515625 121.328125 C-1.21704208 121.34138321 -2.46924042 121.35464142 -3.75938416 121.36830139 C-13.41124357 121.26472736 -13.41124357 121.26472736 -16.5078125 118.29101562 C-19.17211918 114.25501681 -18.89941003 112.46383893 -18.21875 107.69921875 C-16.34859906 105.26802252 -14.93736655 104.05852702 -12.21875 102.69921875 C-5.94875 102.69921875 0.32125 102.69921875 6.78125 102.69921875 C6.78125 74.97921875 6.78125 47.25921875 6.78125 18.69921875 C0.51125 18.69921875 -5.75875 18.69921875 -12.21875 18.69921875 C-17.21875 15.69921875 -17.21875 15.69921875 -18.21875 13.69921875 C-18.90336454 6.73897096 -18.90336454 6.73897096 -16.51220703 3.10742188 C-12.14021434 -1.07600737 -5.64600389 -0.03156951 0 0 Z " fill="#000000" transform="translate(291.21875,195.30078125)"/>
</svg>
